Coordinates
version=1
nRows=14
nColumns=36
inDegrees=yes

Units are S.I. units (second, meters, Newtons, ...)
If the header above contains a line with 'inDegrees', this indicates whether rotational values are in degrees (yes) or radians (no).

endheader
time	pelvis_tilt	pelvis_list	pelvis_rotation	pelvis_tx	pelvis_ty	pelvis_tz	hip_flexion_r	hip_adduction_r	hip_rotation_r	knee_angle_r	knee_angle_r_beta	ankle_angle_r	subtalar_angle_r	mtp_angle_r	hip_flexion_l	hip_adduction_l	hip_rotation_l	knee_angle_l	knee_angle_l_beta	ankle_angle_l	subtalar_angle_l	mtp_angle_l	lumbar_extension	lumbar_bending	lumbar_rotation	arm_flex_r	arm_add_r	arm_rot_r	elbow_flex_r	pro_sup_r	arm_flex_l	arm_add_l	arm_rot_l	elbow_flex_l	pro_sup_l
     14.81666670	     -2.92067984	     -8.22855354	     -8.24063641	      0.70575938	      0.90500343	      0.74344392	     21.79871236	     11.08447938	     -2.14491054	     20.61206337	      0.35974837	      7.71537642	     -7.89208404	     -7.49999987	     -4.33852678	    -12.89009969	    -10.52808716	     45.27138997	      0.79013481	     -7.68850180	    -19.28444469	     -7.49999987	      2.27407611	     11.58425157	     -0.47580731	     -8.75982396	    -14.26484013	      2.33688038	     19.57283116	     74.66207056	      2.50547379	     -6.14279497	      3.18189679	     27.53218122	     77.05941700
     14.83333330	     -2.26437788	     -8.29676792	     -8.24610801	      0.70497595	      0.90818484	      0.74626228	     19.27949145	     11.27562480	     -1.65104512	     19.90531056	      0.34741321	      8.75714325	     -8.41238014	     -7.49999987	     -2.04508103	    -13.19809893	     -9.81678142	     49.80912892	      0.86933330	     -9.77304902	    -21.49956257	     -7.49999987	      1.58090412	     11.60431200	      0.48474162	     -7.86566897	    -14.12527021	      2.78376533	     18.99003960	     74.85504182	      2.33400818	     -5.87842167	      4.53956124	     25.89008563	     77.46013116
     14.85000000	     -1.68051205	     -8.10229785	     -8.14540989	      0.69951333	      0.90997896	      0.75109296	     16.90230426	     11.13112540	     -1.27337364	     19.09723015	      0.33330954	      9.74446150	     -8.75971166	     -7.49999987	      0.53551649	    -13.08837753	     -9.02886979	     53.72055392	      0.93760054	     -9.45795055	    -22.83519398	     -7.49999987	      0.65011017	     11.27513158	      1.32757178	     -6.75708086	    -13.93722193	      2.98396686	     19.18908280	     74.88609349	      1.96053400	     -5.79014782	      5.09257238	     25.28539165	     77.51283517
     14.86666670	     -1.16115379	     -7.58933935	     -8.07435248	      0.69164049	      0.91148264	      0.75716936	     14.77785773	     10.65752716	     -0.87922535	     18.36848343	      0.32059051	     10.68836955	     -8.97260050	     -7.49999987	      3.36397037	    -12.46954639	     -8.20422495	     56.95943064	      0.99412960	     -8.05133760	    -24.19382811	     -7.49999987	     -0.15942750	     10.47863729	      2.20510919	     -4.79883875	    -13.64598885	      4.44393866	     18.47044722	     75.61299849	      2.32214720	     -6.17243466	      8.04805404	     23.32097093	     78.23928268
     14.88333330	     -0.66457057	     -6.96770693	     -8.04880548	      0.68609343	      0.91441419	      0.76244178	     12.77968228	     10.06471361	     -0.59465860	     17.67407569	      0.30847081	     11.54280900	     -8.98101018	     -7.49999987	      6.35540925	    -11.63541580	     -7.40711040	     59.72182744	      1.04234252	     -5.77090561	    -24.90549379	     -7.49999987	     -1.31636749	      9.49138496	      2.99096446	     -2.91391070	    -13.33459956	      4.87410754	     19.30035724	     75.66725837	      2.20547666	     -6.53669921	      8.60843232	     22.78679031	     78.14871861
     14.90000000	     -0.60853355	     -6.18451159	     -8.28782798	      0.68456076	      0.91927121	      0.76645004	     11.25872778	      9.39355852	     -0.22272646	     16.92296174	      0.29536140	     12.29534969	     -8.64488287	     -7.49999987	      9.73725993	    -10.61250758	     -6.85688222	     61.84693431	      1.07943264	     -3.81901890	    -25.63353545	     -7.49999987	     -1.97858416	      8.34438842	      4.13745935	     -1.23431199	    -12.99601076	      4.96889259	     20.63598700	     75.39365114	      1.71977289	     -6.95054410	      8.63995597	     23.07619801	     77.78107110
     14.91666670	      0.14492590	     -5.62765229	     -8.35911147	      0.68296387	      0.92616559	      0.76928412	      8.93213041	      8.81729313	     -0.15258318	     15.96994186	      0.27872807	     12.98244383	     -8.01175370	     -7.49999987	     12.19924067	     -9.83570248	     -6.53499629	     63.28783496	      1.10458110	     -0.86783137	    -24.46978850	     -7.49999987	     -3.51715470	      7.35734578	      4.91790559	      1.26883328	    -12.85747284	      5.77003291	     21.59512956	     75.52203270	      1.87443567	     -7.24197562	      9.09357448	     21.78752725	     77.69495845
     14.93333330	      0.48728438	     -4.91685647	     -8.63447271	      0.67938677	      0.93136273	      0.77159343	      7.11829301	      8.12493364	      0.06217293	     14.99452919	      0.26170390	     13.53261786	     -7.05510321	     -7.49999987	     14.74014888	     -9.03521589	     -6.61634367	     63.66819713	      1.11121967	      1.30569259	    -23.26499403	     -7.49999987	     -4.46865257	      6.19902330	      6.12759436	      3.56039310	    -13.08707053	      7.78795237	     22.79581243	     75.34073422	      1.99768237	     -7.67299334	     10.08549776	     20.97846827	     77.09032419
     14.95000000	      1.01002111	     -4.20871209	     -8.75969525	      0.67548705	      0.93399286	      0.77235843	      5.18093091	      7.36275877	      0.36776472	     14.00834716	      0.24449178	     13.80317672	     -6.50401047	     -7.49999987	     16.70070348	     -8.25906486	     -6.84810466	     62.89405026	      1.09770826	      2.88247354	    -21.88022937	     -7.49999987	     -5.68865585	      5.04982718	      7.01020548	      6.11430750	    -13.42650720	      9.74528674	     24.32378484	     75.40621538	      2.08679234	     -8.11360380	     11.24322347	     20.56435644	     76.88578558
     14.96666670	      1.51994380	     -3.52374644	     -8.79046889	      0.67343724	      0.93374049	      0.77126538	      3.36757847	      6.54306025	      0.54011603	     13.24317672	      0.23113704	     14.05965222	     -5.89546535	     -7.49999987	     18.23109628	     -7.51591125	     -7.20675791	     61.07857129	      1.06602217	      4.00707855	    -20.45926332	     -7.49999987	     -6.79790293	      3.98233506	      7.81785576	      8.51810343	    -13.74011100	     10.32434360	     25.83066933	     75.62986727	      2.10656117	     -8.41538370	     11.48224392	     20.20902033	     77.00885898
     14.98333330	      2.00057188	     -2.87563283	     -8.79335939	      0.67282281	      0.93097869	      0.76946149	      1.68272303	      5.71277371	      0.71537136	     12.74112154	      0.22237452	     14.35049556	     -5.53804356	     -7.49999987	     19.41226013	     -6.83177659	     -7.71033571	     58.43178347	      1.01982701	      5.03526336	    -19.11898789	     -7.49999987	     -7.75302907	      3.03732982	      8.50138642	     10.83726980	    -14.22201972	     10.87043129	     27.37272997	     75.89777063	      2.12523058	     -8.57712055	     11.70339840	     19.59171697	     77.16399065
     15.00000000	      2.35569989	     -2.29688580	     -8.71931310	      0.67255296	      0.92829100	      0.76838596	      0.16362760	      4.92769766	      0.67642765	     12.37731505	      0.21602490	     14.54499165	     -5.25291159	     -7.49999987	     20.40956853	     -6.15671211	     -8.15566607	     55.01089338	      0.96012121	      6.13952954	    -17.79176389	     -7.49999987	     -8.52518142	      2.26708282	      9.12182976	     12.83480857	    -14.93610549	     11.49272922	     29.20647082	     76.31680017	      2.00442459	     -8.65558407	     11.93342138	     18.84692108	     77.46006151
     15.01666670	      2.51795781	     -1.76165375	     -8.64086973	      0.67121985	      0.92702232	      0.76828203	     -1.16759515	      4.23632867	      0.58927448	     11.92069999	      0.20805546	     14.61961592	     -5.30610937	     -7.49999987	     21.36581067	     -5.48083266	     -8.48809461	     50.96022118	      0.88942365	      6.92610015	    -16.74802565	     -7.49999987	     -9.09610772	      1.61390697	      9.52282870	     14.69407202	    -15.51961654	     11.40184159	     31.38379483	     75.36126560	      1.44119678	     -8.85478906	     11.83377737	     18.70483324	     76.31971990
     15.03333330	      2.55241308	     -1.39605271	     -8.60528007	      0.66778405	      0.92587495	      0.76837228	     -2.42576110	      3.76458029	      0.56026237	     11.22852246	      0.19597469	     14.83536152	     -5.27356970	     -7.49999987	     22.37751377	     -5.00726706	     -8.69630049	     46.79330925	      0.81669731	      7.48823145	    -15.52128002	     -7.49999987	     -9.52031664	      1.21054900	      9.93970148	     16.51581518	    -16.17461926	     11.23355855	     33.68609969	     74.17636514	      0.92324659	     -9.01400802	     11.69845532	     18.51971371	     74.84243089
